<?xml version="1.0" encoding="UTF-8"?>
<svg version="1.1" xmlns="http://www.w3.org/2000/svg" width="400" height="400">
<path d="M0 0 C0.77085937 0.71671875 1.54171875 1.4334375 2.3359375 2.171875 C3.9120014 3.60270434 5.54185785 4.97573038 7.2109375 6.296875 C17.13865985 14.32901282 24.49202993 26.043326 30.9375 36.9375 C31.34589111 37.62577881 31.75428223 38.31405762 32.17504883 39.02319336 C40.46691023 53.3358968 43.26782672 67.31703568 43.1875 83.875 C43.18478088 84.92414078 43.18478088 84.92414078 43.18200684 85.99447632 C43.04604085 105.43567744 36.83077218 120.0024981 28.83276367 137.51342773 C23.44385122 149.49992462 19.66596555 160.2091843 23.484375 173.36328125 C25.68371452 178.92941792 28.99137372 183.28376152 32.79296875 187.859375 C37.2491548 193.44340991 39.75669944 197.33342362 39.14453125 204.6171875 C37.70266454 211.92409098 34.73479342 216.53323645 29.3671875 221.58984375 C22.87594611 227.77544373 21.70799526 233.47664446 20.625 242.25 C18.92475522 254.48540638 18.92475522 254.48540638 14.625 259.25 C12.40301038 260.87729653 10.12437204 262.10238546 7.625 263.25 C6.738125 263.6625 5.85125 264.075 4.9375 264.5 C-7.8950999 267.40549432 -18.54071951 262.87133921 -30.375 258.25 C-30.80864538 267.59746708 -29.77242465 275.01187686 -25.875 283.52734375 C-24.18860719 287.42971865 -23.38056922 291.31971831 -22.6875 295.5 C-22.5622998 296.24072754 -22.43709961 296.98145508 -22.30810547 297.74462891 C-19.89735195 312.84217782 -19.89735195 312.84217782 -22.4609375 317.01953125 C-25.39139275 318.90339534 -27.93442572 318.60909111 -31.375 318.5625 C-32.6125 318.55863281 -33.85 318.55476563 -35.125 318.55078125 C-38.375 318.25 -38.375 318.25 -41.375 316.25 C-42.10546875 312.9921875 -42.10546875 312.9921875 -42.5625 309.125 C-42.72105469 307.84367187 -42.87960937 306.56234375 -43.04296875 305.2421875 C-43.15253906 304.25476563 -43.26210938 303.26734375 -43.375 302.25 C-45.355 301.59 -47.335 300.93 -49.375 300.25 C-49.41238281 301.15363281 -49.44976562 302.05726563 -49.48828125 302.98828125 C-49.58689453 304.75751953 -49.58689453 304.75751953 -49.6875 306.5625 C-49.74550781 307.73425781 -49.80351562 308.90601563 -49.86328125 310.11328125 C-50.375 313.25 -50.375 313.25 -51.6015625 315.15234375 C-53.98744476 316.62906823 -55.64952636 316.58211999 -58.4375 316.5 C-59.31535156 316.48453125 -60.19320312 316.4690625 -61.09765625 316.453125 C-63.375 316.25 -63.375 316.25 -65.375 315.25 C-66.37996852 312.23509443 -66.47835303 310.20818308 -66.4375 307.0625 C-66.42847656 306.16144531 -66.41945312 305.26039063 -66.41015625 304.33203125 C-66.39275391 303.30142578 -66.39275391 303.30142578 -66.375 302.25 C-68.355 302.25 -70.335 302.25 -72.375 302.25 C-72.35179687 303.02085937 -72.32859375 303.79171875 -72.3046875 304.5859375 C-72.28664062 305.58882813 -72.26859375 306.59171875 -72.25 307.625 C-72.22679687 308.62273437 -72.20359375 309.62046875 -72.1796875 310.6484375 C-72.375 313.25 -72.375 313.25 -74.375 315.25 C-78.03854503 316.65905578 -82.51897881 316.88262848 -86.375 316.25 C-88.546875 315.15234375 -88.546875 315.15234375 -90.375 313.25 C-91.203125 310.11328125 -91.203125 310.11328125 -91.625 306.5625 C-91.84929687 304.79326172 -91.84929687 304.79326172 -92.078125 302.98828125 C-92.17609375 302.08464844 -92.2740625 301.18101562 -92.375 300.25 C-95.015 300.25 -97.655 300.25 -100.375 300.25 C-100.52195313 301.60544922 -100.52195313 301.60544922 -100.671875 302.98828125 C-100.82140625 304.16777344 -100.9709375 305.34726562 -101.125 306.5625 C-101.26421875 307.73425781 -101.4034375 308.90601563 -101.546875 310.11328125 C-102.375 313.25 -102.375 313.25 -104.20703125 315.1484375 C-108.47993437 317.31953422 -112.91323689 316.71652014 -117.3125 315.3125 C-119.375 314.25 -119.375 314.25 -120.375 313.25 C-120.44726502 311.39712498 -120.4588122 309.54166122 -120.4375 307.6875 C-120.42847656 306.67558594 -120.41945313 305.66367187 -120.41015625 304.62109375 C-120.39855469 303.83863281 -120.38695312 303.05617188 -120.375 302.25 C-122.355 302.25 -124.335 302.25 -126.375 302.25 C-126.36339844 302.93707031 -126.35179687 303.62414062 -126.33984375 304.33203125 C-126.33082031 305.23308594 -126.32179688 306.13414062 -126.3125 307.0625 C-126.30089844 307.95582031 -126.28929687 308.84914063 -126.27734375 309.76953125 C-126.375 312.25 -126.375 312.25 -127.375 315.25 C-129.82882134 316.47691067 -131.57484103 316.45175931 -134.3125 316.5 C-135.18777344 316.52578125 -136.06304687 316.5515625 -136.96484375 316.578125 C-139.375 316.25 -139.375 316.25 -141.1484375 315.15234375 C-142.95587899 312.34908259 -142.89902285 309.86473844 -143.0625 306.5625 C-143.12824219 305.38300781 -143.19398438 304.20351563 -143.26171875 302.98828125 C-143.31779297 301.63283203 -143.31779297 301.63283203 -143.375 300.25 C-145.355 300.91 -147.335 301.57 -149.375 302.25 C-149.48457031 303.23742187 -149.59414062 304.22484375 -149.70703125 305.2421875 C-149.86558594 306.52351563 -150.02414063 307.80484375 -150.1875 309.125 C-150.41373047 311.03925781 -150.41373047 311.03925781 -150.64453125 312.9921875 C-151.375 316.25 -151.375 316.25 -154.375 318.25 C-157.625 318.55078125 -157.625 318.55078125 -161.375 318.5625 C-162.6125 318.57925781 -163.85 318.59601563 -165.125 318.61328125 C-168.375 318.25 -168.375 318.25 -170.2890625 317.01953125 C-174.61412019 309.9718653 -170.63634682 297.20997099 -168.95361328 289.49365234 C-167.78849318 284.97573937 -166.04282818 280.66140436 -164.37011719 276.31225586 C-162.13626834 270.24192139 -161.70317428 264.70699161 -162.375 258.25 C-163.31601563 258.58773438 -164.25703125 258.92546875 -165.2265625 259.2734375 C-166.48436266 259.72399278 -167.74217586 260.17451168 -169 260.625 C-170.22976562 261.06585938 -171.45953125 261.50671875 -172.7265625 261.9609375 C-173.93054688 262.38632812 -175.13453125 262.81171875 -176.375 263.25 C-177.39851563 263.62640625 -178.42203125 264.0028125 -179.4765625 264.390625 C-188.18486954 266.97260283 -196.48577373 265.44115145 -204.375 261.25 C-208.92492162 258.44260156 -210.74911848 255.23503118 -212.375 250.25 C-213.02852111 246.68407534 -213.26592891 243.08931145 -213.546875 239.47851562 C-214.28426624 231.60119193 -217.3357014 226.96011579 -222.875 221.375 C-227.00111835 217.01133963 -230.44746923 213.32532651 -231.375 207.25 C-231.519375 206.40953125 -231.66375 205.5690625 -231.8125 204.703125 C-232.58649186 196.1408401 -228.64721573 191.59565786 -223.375 185.25 C-217.25540862 177.48856702 -214.24061876 169.82721492 -214.4453125 159.80859375 C-215.68904598 150.50033445 -219.30483071 142.50075974 -223.1875 134 C-234.51126605 109.10816392 -242.07291871 80.19227265 -232.14990234 53.14648438 C-225.94265733 37.95496601 -216.58685999 24.36114984 -205.3828125 12.43359375 C-203.31151707 10.23465084 -203.31151707 10.23465084 -201.3359375 7.67578125 C-181.07652072 -17.38616661 -144.31827577 -30.82030043 -113.25 -34.4375 C-72.13159554 -37.40991478 -31.28986922 -28.08300122 0 0 Z M-187.25 182.125 C-187.91257812 182.39441406 -188.57515625 182.66382813 -189.2578125 182.94140625 C-192.07773826 184.11637532 -194.19570217 185.07070217 -196.375 187.25 C-197.97070144 200.72107954 -195.13959387 214.28525885 -187.78125 225.76953125 C-185.82482279 227.82921434 -183.9240578 228.98561503 -181.375 230.25 C-178.6267832 230.30302381 -178.6267832 230.30302381 -175.796875 229.640625 C-174.74306641 229.42986328 -173.68925781 229.21910156 -172.60351562 229.00195312 C-167.55818745 227.82684644 -162.58732298 226.48596698 -157.625 225 C-156.58512939 224.6913501 -155.54525879 224.3827002 -154.47387695 224.06469727 C-133.12754973 218.66230084 -133.12754973 218.66230084 -116.375 206.25 C-149.60385617 182.99831252 -149.60385617 182.99831252 -187.25 182.125 Z M-35.375 184.25 C-36.12362305 184.55583008 -36.87224609 184.86166016 -37.64355469 185.17675781 C-47.68436802 189.34223269 -57.26339508 194.09421152 -66.625 199.625 C-67.5010791 200.13683838 -68.3771582 200.64867676 -69.27978516 201.17602539 C-70.0794873 201.66192139 -70.87918945 202.14781738 -71.703125 202.6484375 C-72.4137207 203.07817871 -73.12431641 203.50791992 -73.85644531 203.95068359 C-74.35756836 204.37945801 -74.85869141 204.80823242 -75.375 205.25 C-75.375 206.24 -75.375 207.23 -75.375 208.25 C-63.5820433 218.72511913 -44.7310916 222.39745109 -29.9375 226.5 C-29.01412842 226.75837646 -28.09075684 227.01675293 -27.1394043 227.28295898 C-17.93998323 230.10639635 -17.93998323 230.10639635 -8.6875 229.3125 C-0.45665074 221.97147229 3.24353977 209.53396346 4.078125 198.76171875 C4.76000565 191.60546711 4.76000565 191.60546711 1.98046875 185.46875 C-12.33590427 178.06127341 -20.79155389 178.26097457 -35.375 184.25 Z M-108.375 234.25 C-108.87257813 234.87261719 -109.37015625 235.49523437 -109.8828125 236.13671875 C-115.21587114 243.49761705 -116.63234771 253.33764253 -116.375 262.25 C-114.00071301 261.84064017 -112.68059158 261.56498127 -110.9765625 259.80859375 C-107.20448446 256.1377178 -100.4911916 254.45464766 -95.375 254.25 C-88.84935983 255.6943694 -83.13815002 257.48684998 -78.375 262.25 C-77.715 262.25 -77.055 262.25 -76.375 262.25 C-77.11155845 247.4680339 -80.45040039 238.15559453 -90.39453125 226.98046875 C-92.87348685 224.81443851 -94.94468359 224.37815448 -98.22265625 224.54296875 C-102.91250335 226.08355373 -105.55938745 230.41327474 -108.375 234.25 Z " fill="#000000" transform="translate(300.375,57.75)"/>
<path d="M0 0 C0.99 1.485 0.99 1.485 2 3 C1.34 3 0.68 3 0 3 C0 2.01 0 1.02 0 0 Z " fill="#000000" transform="translate(63,159)"/>
<path d="M0 0 C0.33 0.99 0.66 1.98 1 3 C0.34 2.67 -0.32 2.34 -1 2 C-0.67 1.34 -0.34 0.68 0 0 Z " fill="#000000" transform="translate(344,159)"/>
<path d="" fill="#000000" transform="translate(0,0)"/>
<path d="" fill="#000000" transform="translate(0,0)"/>
<path d="" fill="#000000" transform="translate(0,0)"/>
<path d="" fill="#000000" transform="translate(0,0)"/>
<path d="" fill="#000000" transform="translate(0,0)"/>
<path d="" fill="#000000" transform="translate(0,0)"/>
<path d="" fill="#000000" transform="translate(0,0)"/>
<path d="" fill="#000000" transform="translate(0,0)"/>
<path d="" fill="#000000" transform="translate(0,0)"/>
<path d="" fill="#000000" transform="translate(0,0)"/>
<path d="" fill="#000000" transform="translate(0,0)"/>
<path d="" fill="#000000" transform="translate(0,0)"/>
<path d="" fill="#000000" transform="translate(0,0)"/>
<path d="" fill="#000000" transform="translate(0,0)"/>
<path d="" fill="#000000" transform="translate(0,0)"/>
<path d="" fill="#000000" transform="translate(0,0)"/>
<path d="" fill="#000000" transform="translate(0,0)"/>
<path d="" fill="#000000" transform="translate(0,0)"/>
<path d="" fill="#000000" transform="translate(0,0)"/>
<path d="" fill="#000000" transform="translate(0,0)"/>
</svg>
